<?xml version="1.0" encoding="utf-8"?>
<!-- Generator: Adobe Illustrator 24.0.0, SVG Export Plug-In . SVG Version: 6.00 Build 0)  -->
<svg version="1.1" id="Capa_1" xmlns="http://www.w3.org/2000/svg" xmlns:xlink="http://www.w3.org/1999/xlink" x="0px" y="0px"
	 viewBox="0 0 918 396" style="enable-background:new 0 0 918 396;" xml:space="preserve">
<style type="text/css">
	.st0{fill:#005D83;}
	.st1{fill:#415364;}
</style>
<g id="XMLID_33_">
	<path id="XMLID_91_" class="st0" d="M297.23,218.92c0.57,1.59,2.06,5.72-0.01-0.02c-0.29-0.81-0.22-0.6-0.01-0.02
		c-0.56-1.55-1.23-3.05-2.02-4.49c-0.64-1.17-1.92-2.54-2.29-3.7c-0.04-0.05-0.54-0.62-1.09-1.25c0.55,0.65-0.27-0.32-0.31-0.36
		c-0.07-0.08-0.14-0.16-0.21-0.25c-8.73-10.06-21.54-15.7-33.99-19.79c-2.06-0.68-4.15-1.33-6.26-1.98
		c-9.5-2.95-19.46-5.94-27.34-12.27c-3.57-2.87-6.09-6.49-6.62-11.12c-0.54-4.74,1.36-9.08,4.33-12.69
		c5.34-6.48,13.31-8.95,21.44-9.56c8.18-0.61,16.65,0.35,24.55,2.52c5.72,1.57,10.94,4.01,16.03,7.05c2.23,1.34,4.2,2.81,6.2,4.4
		v-23.02c-0.44-0.26-0.88-0.47-1.27-0.64l-0.18-0.08c-1.14-0.64-2.3-1.25-3.48-1.82c-8.97-4.32-18.9-6.69-28.79-7.61
		c-15.37-1.43-28.49,0.99-38.99,7.18c-10.17,6-18.18,16.14-19.51,28.11c-0.7,6.29,0.19,13.03,2.8,18.81
		c2.68,5.93,7.24,11,12.41,14.88c11.22,8.41,25.15,11.66,38.16,16.2c9.9,3.45,22.75,7.24,27.44,17.68
		c2.8,6.24,2.09,14.51-2.73,19.55c-4.89,5.12-12.38,6.75-19.14,7.52c-1.52,0.17-7.62,0.3-9.21,0.38l-13.96-15.68
		c-8.71-10-17.42-20.01-26.13-30.01c-10.41-11.96-20.82-23.92-31.23-35.87c-8.36-9.61-16.73-19.21-25.09-28.82
		c-3.98-4.57-7.95-9.15-11.94-13.72c-1.01-1.16-2-1.95-3.3-2.32h-11.24c-0.36,0.15-0.71,0.33-1.04,0.6
		c-0.75,0.59-1.62,1.71-1.52,3.5c-0.47,6.75-0.01,13.51-0.01,20.26l-0.01,122.13c4.65,0,9.3,0,13.95,0c1.27,0,2.53,0,3.8,0
		c0.33,0,1.66,0.21,1.92,0c0.15-0.12,0.07-0.58,0.07-0.83c0-6.84,0-13.67,0-20.51c0-11.99,0-23.97,0-35.96c0-11.73,0-23.46,0-35.2
		c0-4.11,0-8.21,0-12.32c0-1.28,0-2.56,0-3.84c0-0.51-0.21-1.58,0-2.05c0.03-0.06,0-0.2,0-0.27c2.66,3.06,5.32,6.13,7.98,9.2
		c6.3,7.26,12.61,14.53,18.91,21.79c7.51,8.66,15.03,17.32,22.54,25.98c6.31,7.28,12.63,14.55,18.94,21.83
		c2.68,3.09,5.36,6.17,8.04,9.26c1.78,2.06,3.55,4.14,5.31,6.21c3.01,3.55,6.02,7.09,9.13,10.55c2.74,3.04,5.26,5.49,9.58,5.69
		c3.69,0.17,12.31-0.02,16.99-0.58c9.89-1.18,17.84-3.81,24.32-8.02c7.13-4.64,12.52-11.7,14.78-19.38
		C300.34,236.06,300.08,226.85,297.23,218.92z"/>
	<g id="XMLID_50_">
		<g id="XMLID_77_">
			<g id="XMLID_78_">
				<path id="XMLID_89_" class="st1" d="M392.51,121.84v75.49h-12.94l-29.12-40.98v40.98h-17.26v-75.49h12.94l29.12,40.98v-40.98
					H392.51z"/>
				<path id="XMLID_84_" class="st1" d="M458.3,180.72v16.61h-47.45v-75.49h46.91v16.61h-29.66v12.51h26.96v16.39h-26.96v13.37
					H458.3z"/>
				<path id="XMLID_82_" class="st1" d="M595.09,138.45h-19.41v58.88h-17.26v-58.88h-19.41v-16.61h56.08V138.45z"/>
				<g id="XMLID_79_">
					<polygon id="XMLID_81_" class="st1" points="515.69,121.84 493.69,121.84 468.02,197.33 486.89,197.33 498.91,159.68 
						498.91,159.68 504.69,141.58 513.53,169.29 520.82,192.12 522.48,197.33 541.36,197.33 					"/>
				</g>
			</g>
		</g>
		<g id="XMLID_51_">
			<path id="XMLID_76_" class="st1" d="M355.85,239.19c-8.14-2.68-12.74-4.48-12.74-10.05c0-5.57,4.49-9.32,11.18-9.32
				c7.81,0,11.43,4.79,13.09,8.8c0.18,0.43,0.53,0.76,0.96,0.91c0.44,0.15,0.91,0.11,1.32-0.11l3.64-2.02
				c0.72-0.4,1.02-1.28,0.7-2.04c-3.39-8.07-10.76-12.89-19.71-12.89c-10.88,0-18.78,7.08-18.78,16.84
				c0,10.97,9.58,14.07,18.84,17.08l0.26,0.09c9.17,2.91,13.53,5.24,13.53,10.61c0,6.09-4.72,9.72-12.64,9.72
				c-8.08,0-13.57-3.64-15.45-10.25c-0.14-0.48-0.49-0.87-0.95-1.06c-0.46-0.19-0.99-0.15-1.42,0.11l-3.72,2.19
				c-0.65,0.38-0.95,1.17-0.72,1.89c2.93,9.07,11.25,14.48,22.27,14.48c12.11,0,20.24-6.9,20.24-17.16
				C375.75,245.77,365.18,242.28,355.85,239.19z"/>
			<path id="XMLID_68_" class="st1" d="M414.31,212.47c-17.3,0-30.85,13.55-30.85,30.85s13.55,30.85,30.85,30.85
				s30.85-13.55,30.85-30.85S431.6,212.47,414.31,212.47z M414.31,266.81c-13.08,0-23.33-10.32-23.33-23.49
				c0-13.17,10.25-23.49,23.33-23.49c13.08,0,23.33,10.32,23.33,23.49C437.63,256.49,427.39,266.81,414.31,266.81z"/>
			<path id="XMLID_67_" class="st1" d="M489.47,266h-25.11v-51.02c0-0.89-0.72-1.61-1.61-1.61h-4.29c-0.89,0-1.61,0.72-1.61,1.61
				v56.69c0,0.89,0.72,1.61,1.61,1.61h31.02c0.89,0,1.61-0.72,1.61-1.61v-4.05C491.08,266.72,490.36,266,489.47,266z"/>
			<path id="XMLID_66_" class="st1" d="M542.35,213.36h-4.29c-0.89,0-1.61,0.72-1.61,1.61v37.74c0,8.83-5.57,14.1-14.91,14.1
				c-9.28,0-14.83-5.27-14.83-14.1v-37.74c0-0.89-0.72-1.61-1.61-1.61h-4.29c-0.89,0-1.61,0.72-1.61,1.61v37.74
				c0,12.83,8.98,21.46,22.35,21.46c13.41,0,22.42-8.62,22.42-21.46v-37.74C543.97,214.08,543.24,213.36,542.35,213.36z"/>
			<path id="XMLID_65_" class="st1" d="M594.51,213.36h-40.01c-0.89,0-1.61,0.72-1.61,1.61v4.05c0,0.89,0.72,1.61,1.61,1.61h16.2
				v51.02c0,0.89,0.72,1.61,1.61,1.61h4.37c0.89,0,1.61-0.72,1.61-1.61v-51.02h16.2c0.89,0,1.61-0.72,1.61-1.61v-4.05
				C596.13,214.08,595.4,213.36,594.51,213.36z"/>
			<path id="XMLID_58_" class="st1" d="M611.77,213.36h-4.29c-0.89,0-1.61,0.72-1.61,1.61v56.69c0,0.89,0.72,1.61,1.61,1.61h4.29
				c0.89,0,1.61-0.72,1.61-1.61v-56.69C613.38,214.08,612.66,213.36,611.77,213.36z"/>
			<path id="XMLID_54_" class="st1" d="M655.91,212.47c-17.3,0-30.85,13.55-30.85,30.85s13.55,30.85,30.85,30.85
				s30.85-13.55,30.85-30.85S673.2,212.47,655.91,212.47z M655.91,266.81c-13.08,0-23.33-10.32-23.33-23.49
				c0-13.17,10.25-23.49,23.33-23.49c13.08,0,23.33,10.32,23.33,23.49C679.23,256.49,668.99,266.81,655.91,266.81z"/>
			<path id="XMLID_53_" class="st1" d="M741.59,213.36h-4.29c-0.89,0-1.61,0.72-1.61,1.61v43.56l-30.58-44.47
				c-0.3-0.44-0.8-0.7-1.33-0.7h-3.73c-0.89,0-1.61,0.72-1.61,1.61v56.69c0,0.89,0.72,1.61,1.61,1.61h4.29
				c0.89,0,1.61-0.72,1.61-1.61v-43.54l30.5,44.46c0.3,0.44,0.8,0.7,1.33,0.7h3.81c0.89,0,1.61-0.72,1.61-1.61v-56.69
				C743.21,214.08,742.48,213.36,741.59,213.36z"/>
			<path id="XMLID_52_" class="st1" d="M776.6,239.19c-8.14-2.68-12.74-4.48-12.74-10.05c0-5.57,4.49-9.32,11.18-9.32
				c7.81,0,11.43,4.79,13.09,8.8c0.18,0.43,0.53,0.76,0.96,0.91c0.44,0.15,0.91,0.11,1.32-0.11l3.64-2.02
				c0.72-0.4,1.02-1.28,0.7-2.04c-3.39-8.07-10.76-12.89-19.71-12.89c-10.88,0-18.78,7.08-18.78,16.84
				c0,10.97,9.58,14.07,18.84,17.08l0.26,0.09c9.17,2.91,13.53,5.24,13.53,10.61c0,6.09-4.72,9.72-12.64,9.72
				c-8.08,0-13.57-3.64-15.45-10.25c-0.14-0.48-0.49-0.87-0.95-1.06c-0.46-0.19-0.99-0.15-1.42,0.11l-3.72,2.19
				c-0.65,0.38-0.95,1.17-0.72,1.89c2.93,9.07,11.25,14.48,22.27,14.48c12.11,0,20.24-6.9,20.24-17.16
				C796.5,245.77,785.93,242.28,776.6,239.19z"/>
		</g>
	</g>
</g>
</svg>
